HIERARCHY
ROOT Hips
{
	OFFSET 0.000000 89.005402 0.000000
	CHANNELS 6 Xposition Yposition Zposition Xrotation Yrotation Zrotation
	JOINT Spine
	{
		OFFSET 0.116900 10.681000 0.373400
		CHANNELS 3 Xrotation Yrotation Zrotation
		JOINT Spine1
		{
			OFFSET 0.000000 13.840401 0.053500
			CHANNELS 3 Xrotation Yrotation Zrotation
			JOINT Spine2
			{
				OFFSET 0.000000 14.712700 -0.366200
				CHANNELS 3 Xrotation Yrotation Zrotation
				JOINT Neck
				{
					OFFSET 0.000000 35.415497 -3.314200
					CHANNELS 3 Xrotation Yrotation Zrotation
					JOINT Head
					{
						OFFSET 0.000000 16.899200 1.218300
						CHANNELS 3 Xrotation Yrotation Zrotation
						JOINT HeadTop_End
						{
							OFFSET 0.000000 22.206207 2.192500
							CHANNELS 3 Xrotation Yrotation Zrotation
							End Site
							{
								OFFSET 0.000000 22.314178 0.000000
							}
						}
					}
				}
				JOINT LeftShoulder
				{
					OFFSET 12.896400 26.716293 -4.548400
					CHANNELS 3 Xrotation Yrotation Zrotation
					JOINT LeftArm
					{
						OFFSET 19.027000 -4.857010 -1.718400
						CHANNELS 3 Xrotation Yrotation Zrotation
						JOINT LeftForeArm
						{
							OFFSET 24.179897 0.000000 0.000000
							CHANNELS 3 Xrotation Yrotation Zrotation
							JOINT LeftHand
							{
								OFFSET 27.156403 0.000000 0.000000
								CHANNELS 3 Xrotation Yrotation Zrotation
								JOINT LeftHandIndex1
								{
									OFFSET 16.441200 0.000000 0.000000
									CHANNELS 3 Xrotation Yrotation Zrotation
									JOINT LeftHandIndex2
									{
										OFFSET 4.821899 0.000000 0.000000
										CHANNELS 3 Xrotation Yrotation Zrotation
										JOINT LeftHandIndex3
										{
											OFFSET 6.386497 0.000000 0.000000
											CHANNELS 3 Xrotation Yrotation Zrotation
											JOINT LeftHandIndex4
											{
												OFFSET 5.188988 0.000000 0.000000
												CHANNELS 3 Xrotation Yrotation Zrotation
												End Site
												{
													OFFSET -0.178703 5.185913 0.000177
												}
											}
										}
									}
								}
								JOINT LeftHandThumb1
								{
									OFFSET 6.534897 -5.032593 5.900300
									CHANNELS 3 Xrotation Yrotation Zrotation
									JOINT LeftHandThumb2
									{
										OFFSET 3.818176 -2.204422 2.204423
										CHANNELS 3 Xrotation Yrotation Zrotation
										JOINT LeftHandThumb3
										{
											OFFSET 3.252098 -1.877594 1.877601
											CHANNELS 3 Xrotation Yrotation Zrotation
											JOINT LeftHandThumb4
											{
												OFFSET 5.251778 -3.032120 3.032117
												CHANNELS 3 Xrotation Yrotation Zrotation
												End Site
												{
													OFFSET 0.000023 6.780014 0.000000
												}
											}
										}
									}
								}
							}
						}
					}
				}
				JOINT RightShoulder
				{
					OFFSET -12.896300 26.716293 -4.548400
					CHANNELS 3 Xrotation Yrotation Zrotation
					JOINT RightArm
					{
						OFFSET -19.027000 -4.857010 -1.718400
						CHANNELS 3 Xrotation Yrotation Zrotation
						JOINT RightForeArm
						{
							OFFSET -24.179897 0.000000 0.000000
							CHANNELS 3 Xrotation Yrotation Zrotation
							JOINT RightHand
							{
								OFFSET -27.156403 0.000000 0.000000
								CHANNELS 3 Xrotation Yrotation Zrotation
								JOINT RightHandThumb1
								{
									OFFSET -6.591202 -4.852203 5.988100
									CHANNELS 3 Xrotation Yrotation Zrotation
									JOINT RightHandThumb2
									{
										OFFSET -3.818176 -2.204422 2.204423
										CHANNELS 3 Xrotation Yrotation Zrotation
										JOINT RightHandThumb3
										{
											OFFSET -3.252098 -1.877594 1.877601
											CHANNELS 3 Xrotation Yrotation Zrotation
											JOINT RightHandThumb4
											{
												OFFSET -5.251778 -3.032120 3.032117
												CHANNELS 3 Xrotation Yrotation Zrotation
												End Site
												{
													OFFSET -0.000023 6.780014 0.000000
												}
											}
										}
									}
								}
								JOINT RightHandIndex1
								{
									OFFSET -16.029404 0.000000 0.000000
									CHANNELS 3 Xrotation Yrotation Zrotation
									JOINT RightHandIndex2
									{
										OFFSET -5.213303 0.000000 0.000000
										CHANNELS 3 Xrotation Yrotation Zrotation
										JOINT RightHandIndex3
										{
											OFFSET -6.386528 0.000000 0.000000
											CHANNELS 3 Xrotation Yrotation Zrotation
											JOINT RightHandIndex4
											{
												OFFSET -5.189026 0.000000 0.000000
												CHANNELS 3 Xrotation Yrotation Zrotation
												End Site
												{
													OFFSET 0.236702 5.183624 0.001972
												}
											}
										}
									}
								}
							}
						}
					}
				}
			}
		}
	}
	JOINT LeftUpLeg
	{
		OFFSET 14.073000 -7.904099 -1.463000
		CHANNELS 3 Xrotation Yrotation Zrotation
		JOINT LeftLeg
		{
			OFFSET -0.109806 -34.073280 4.093200
			CHANNELS 3 Xrotation Yrotation Zrotation
			JOINT LeftFoot
			{
				OFFSET 0.109806 -29.899420 -6.319000
				CHANNELS 3 Xrotation Yrotation Zrotation
				JOINT LeftToeBase
				{
					OFFSET 1.551100 -14.988700 20.535801
					CHANNELS 3 Xrotation Yrotation Zrotation
					JOINT LeftToe_End
					{
						OFFSET 0.221200 0.570800 13.248301
						CHANNELS 3 Xrotation Yrotation Zrotation
						End Site
						{
							OFFSET 0.000000 13.262435 0.000000
						}
					}
				}
			}
		}
	}
	JOINT RightUpLeg
	{
		OFFSET -13.839300 -7.904099 -1.463000
		CHANNELS 3 Xrotation Yrotation Zrotation
		JOINT RightLeg
		{
			OFFSET 0.109694 -34.073219 4.093300
			CHANNELS 3 Xrotation Yrotation Zrotation
			JOINT RightFoot
			{
				OFFSET -0.109694 -29.899384 -6.319200
				CHANNELS 3 Xrotation Yrotation Zrotation
				JOINT RightToeBase
				{
					OFFSET -1.551100 -14.988700 20.535801
					CHANNELS 3 Xrotation Yrotation Zrotation
					JOINT RightToe_End
					{
						OFFSET -0.221200 0.570900 13.248299
						CHANNELS 3 Xrotation Yrotation Zrotation
						End Site
						{
							OFFSET 0.000000 13.262440 0.000000
						}
					}
				}
			}
		}
	}
}
MOTION
Frames: 8
Frame Time: 0.033333
1.723316 125.975433 59.369713 18.749411 2.449492 1.282297 4.794830 -0.235782 -0.932147 8.789455 -0.814560 -4.499288 8.794540 -0.720077 -4.514329 -6.357257 0.280922 -4.246829 -23.096604 -7.622794 12.151476 -0.000001 -0.000000 -0.000000 0.109089 5.588959 -6.255882 -57.466821 -30.322577 -42.346350 -0.000025 -39.543339 -0.000026 13.313040 -23.182212 12.901707 0.569505 2.746612 -23.424035 0.244674 1.822688 -15.289450 0.061416 0.919532 -7.642756 0.000003 0.000001 0.000001 10.808137 9.857606 -5.150236 -0.410538 23.162404 -5.980891 -2.969228 9.089378 -0.988953 0.000001 -0.000001 -0.000001 1.524536 9.570469 7.925124 -15.062083 9.010046 45.107662 0.000002 9.715173 0.000004 49.171635 24.277873 -19.560299 18.374245 -3.293463 17.345609 23.482228 -18.399073 18.026971 7.075539 -6.244147 5.483642 -0.000002 0.000001 0.000000 1.186724 -3.890241 33.917698 0.532640 -2.673576 22.530287 0.134347 -1.363016 11.258918 -0.000002 -0.000002 0.000005 -32.083912 2.284582 0.917758 64.863219 9.349445 0.430924 -39.300075 5.421128 -5.984905 0.000009 -0.000005 -0.000000 -0.000001 0.000000 0.000000 -51.419119 -6.631250 -6.966693 80.098571 -10.334127 -0.794885 -2.955236 -5.995915 -6.634460 0.000004 -0.000004 -0.000003 -0.000001 -0.000001 0.000001 
1.690446 126.074387 64.754700 18.634947 3.148946 -0.789726 4.419645 -0.425081 -0.311170 7.849585 -2.247426 -3.354365 7.858228 -2.169525 -3.388331 -5.894735 0.989030 -4.804567 -21.498367 -5.104157 12.950397 0.000001 0.000000 -0.000000 -0.071250 5.734782 -3.857511 -62.448597 -33.732160 -43.849541 -0.000008 -41.216490 -0.000016 18.767878 -23.774203 14.067370 0.569504 2.746613 -23.424035 0.244673 1.822688 -15.289448 0.061419 0.919530 -7.642758 -0.000001 -0.000001 0.000003 10.808134 9.857606 -5.150234 -0.410539 23.162403 -5.980893 -2.969226 9.089379 -0.988950 0.000001 -0.000001 -0.000002 1.582836 10.505080 7.198897 -14.187907 4.795854 42.598565 -0.000004 6.704459 -0.000008 51.157847 24.004930 -18.595159 18.374245 -3.293459 17.345610 23.482223 -18.399077 18.026970 7.075535 -6.244142 5.483641 0.000001 0.000002 -0.000003 1.186725 -3.890243 33.917702 0.532639 -2.673575 22.530287 0.134345 -1.363019 11.258926 0.000002 -0.000002 0.000004 -26.476291 1.273180 4.388982 62.850322 8.965345 0.290969 -38.876532 4.247862 -8.089837 -0.000008 0.000004 0.000001 -0.000000 0.000000 0.000001 -58.391014 -6.543356 -6.564941 76.489649 -9.689073 -0.570762 -4.066006 -4.162541 -1.092414 0.000001 0.000010 -0.000002 -0.000002 0.000002 0.000000 
1.565114 126.340622 71.150925 18.188001 3.313023 -2.225376 3.815139 -0.832485 -0.175928 6.627120 -3.616416 -2.231221 6.635123 -3.567152 -2.279909 -5.253827 1.777415 -5.408396 -19.444802 -1.771057 12.613102 -0.000001 0.000000 0.000000 -0.250153 5.945952 -1.584802 -65.884196 -36.095289 -45.248299 0.000012 -42.587196 0.000016 22.682435 -24.096692 14.616663 0.569501 2.746615 -23.424038 0.244669 1.822688 -15.289448 0.061418 0.919531 -7.642760 0.000001 0.000001 0.000001 10.808133 9.857606 -5.150233 -0.410540 23.162401 -5.980891 -2.969225 9.089377 -0.988951 0.000001 0.000001 -0.000000 1.650555 11.242561 5.971940 -13.270886 1.452802 40.181801 0.000007 4.190407 0.000001 53.778775 23.423837 -18.244673 18.374247 -3.293462 17.345614 23.482226 -18.399080 18.026971 7.075534 -6.244151 5.483642 -0.000000 -0.000002 0.000002 1.186725 -3.890240 33.917702 0.532637 -2.673575 22.530286 0.134346 -1.363013 11.258922 0.000002 0.000002 -0.000001 -18.335305 2.060189 7.998506 57.781495 7.113160 0.085541 -37.655209 3.687635 -10.069571 0.000006 -0.000004 0.000001 0.000001 0.000001 0.000000 -64.207125 -5.802098 -7.162633 69.220538 -7.732600 -0.257241 1.777190 -0.328358 4.270998 0.000009 -0.000000 -0.000003 -0.000001 -0.000000 -0.000000 
1.407191 126.637848 78.101646 17.044104 3.617324 -3.011535 2.990842 -1.627922 -0.175654 5.169286 -5.116283 -1.296719 5.173398 -5.095184 -1.349459 -4.403349 2.515043 -5.894681 -16.879030 2.027084 11.397341 0.000000 0.000000 0.000000 -0.402820 6.288319 0.085764 -67.022187 -37.652442 -46.200533 0.000002 -45.024668 0.000003 23.265982 -23.367457 13.609102 0.569504 2.746617 -23.424036 0.244670 1.822690 -15.289447 0.061416 0.919528 -7.642758 -0.000002 0.000003 0.000001 10.808135 9.857606 -5.150234 -0.410539 23.162401 -5.980891 -2.969225 9.089380 -0.988951 -0.000000 -0.000004 -0.000001 1.719298 11.591767 4.507918 -11.463802 -1.145717 38.007322 0.000005 3.062723 -0.000007 55.821138 22.771653 -18.100505 18.374245 -3.293456 17.345610 23.482226 -18.399077 18.026966 7.075539 -6.244149 5.483643 -0.000000 0.000004 -0.000001 1.186724 -3.890238 33.917698 0.532640 -2.673576 22.530286 0.134348 -1.363016 11.258924 -0.000001 0.000001 -0.000002 -10.345769 5.476778 11.419468 51.862654 1.910447 -0.189811 -33.127572 2.935894 -9.368667 0.000002 -0.000002 -0.000002 -0.000002 0.000001 0.000000 -65.742613 -5.704718 -8.098355 58.209816 -8.288363 -0.261299 9.139301 0.140295 9.818457 0.000000 -0.000002 0.000005 -0.000000 -0.000001 0.000001 
0.980451 127.314598 85.590797 16.073278 4.988402 -2.652826 2.120884 -2.751721 -0.087389 3.713526 -6.824453 -0.634148 3.713978 -6.819629 -0.678987 -3.330166 3.125361 -6.184578 -14.113704 5.723270 9.735307 0.000000 0.000000 0.000000 -0.530512 6.727173 1.171487 -65.996273 -38.974910 -46.802451 0.000019 -48.721577 0.000014 21.426990 -21.735793 11.435780 0.569502 2.746614 -23.424033 0.244668 1.822689 -15.289448 0.061417 0.919531 -7.642755 -0.000001 0.000001 0.000001 10.808133 9.857607 -5.150235 -0.410538 23.162403 -5.980892 -2.969226 9.089377 -0.988950 0.000001 0.000000 0.000000 1.771258 11.769435 3.208796 -8.217807 -3.828292 35.850444 -0.000001 4.020360 -0.000012 55.865466 22.330188 -17.434299 18.374247 -3.293457 17.345610 23.482226 -18.399080 18.026968 7.075538 -6.244148 5.483644 -0.000003 0.000001 0.000002 1.186724 -3.890241 33.917702 0.532640 -2.673570 22.530287 0.134345 -1.363020 11.258929 0.000001 -0.000003 0.000001 -4.290268 7.501908 12.955319 45.381488 -1.886900 -0.333468 -22.093850 2.005547 -9.097476 0.000005 -0.000000 0.000000 -0.000000 0.000001 -0.000001 -64.269724 -5.323677 -10.407298 45.598305 -8.650024 -0.336121 15.764918 0.002321 16.506930 -0.000009 0.000007 0.000003 -0.000000 0.000001 -0.000000 
0.673774 127.604248 93.195984 14.584267 7.281609 -2.117786 1.443844 -3.938835 0.121660 2.616780 -8.542647 -0.236651 2.613973 -8.543352 -0.263134 -2.100821 3.592991 -6.379524 -11.636156 8.556658 8.115887 -0.000000 0.000000 0.000000 -0.638134 7.088582 2.013909 -63.766557 -40.692744 -47.301823 -0.000033 -52.630808 -0.000024 18.673978 -20.120438 8.893396 0.569501 2.746617 -23.424033 0.244669 1.822691 -15.289450 0.061417 0.919528 -7.642754 -0.000001 0.000001 0.000001 10.808134 9.857608 -5.150233 -0.410538 23.162401 -5.980893 -2.969229 9.089378 -0.988950 -0.000001 0.000000 0.000000 1.816760 12.208742 2.230164 -3.735680 -7.966656 33.823131 -0.000008 6.685009 -0.000005 53.826894 22.311252 -15.983722 18.374245 -3.293461 17.345607 23.482228 -18.399073 18.026970 7.075537 -6.244145 5.483645 0.000001 0.000003 -0.000001 1.186723 -3.890245 33.917698 0.532638 -2.673573 22.530291 0.134349 -1.363019 11.258926 0.000001 -0.000001 -0.000001 -0.884502 7.440496 14.478007 41.422358 -5.275368 -0.429108 -5.205751 1.101910 -10.473935 0.000017 0.000006 -0.000002 -0.000001 0.000001 -0.000002 -60.485758 -4.543601 -12.942089 32.694640 -8.731553 -0.361314 20.555167 1.998273 22.363872 -0.000006 0.000001 -0.000002 -0.000000 0.000001 -0.000001 
0.620830 126.640266 100.157967 12.140539 10.204881 -1.276375 1.128143 -4.805507 0.549569 2.146355 -9.859879 -0.023306 2.138944 -9.861934 -0.023554 -0.890617 3.880791 -6.665067 -9.864274 9.851528 6.915737 -0.000000 -0.000000 -0.000000 -0.717445 7.175967 2.919369 -61.426534 -43.143675 -47.708274 0.000014 -55.444071 0.000007 15.731850 -19.216800 6.066889 0.569501 2.746611 -23.424036 0.244669 1.822690 -15.289450 0.061417 0.919531 -7.642757 0.000000 0.000004 -0.000000 10.808133 9.857601 -5.150237 -0.410539 23.162401 -5.980890 -2.969226 9.089378 -0.988951 -0.000001 -0.000000 -0.000000 1.892595 13.153625 1.255255 1.356968 -14.339096 32.955598 0.000007 9.601409 0.000001 50.848231 22.699900 -13.961802 18.374245 -3.293461 17.345610 23.482228 -18.399082 18.026970 7.075536 -6.244142 5.483640 0.000002 -0.000001 -0.000002 1.186724 -3.890242 33.917698 0.532639 -2.673568 22.530287 0.134348 -1.363015 11.258926 0.000000 0.000001 0.000001 -0.936731 5.668680 14.972453 43.053490 -3.954488 -0.221747 15.121622 0.079266 -8.000986 0.000020 0.000012 -0.000010 -0.000001 0.000000 -0.000003 -56.079996 -4.041602 -16.330576 23.755157 -8.871384 -0.405768 23.871704 2.228016 27.037408 0.000004 -0.000003 -0.000003 0.000000 0.000000 0.000001 
0.598645 124.890152 106.541512 8.391392 13.033961 -0.799091 1.127080 -5.211813 0.901853 2.265433 -10.419174 0.067062 2.250088 -10.423569 0.096553 0.114272 3.905121 -7.082966 -8.968709 9.441425 6.252605 0.000000 -0.000000 0.000000 -0.757994 6.913097 4.026236 -59.357288 -46.147507 -47.659889 0.000010 -56.841487 0.000010 12.833636 -18.741978 2.701693 0.569503 2.746615 -23.424035 0.244669 1.822693 -15.289450 0.061416 0.919533 -7.642755 -0.000001 -0.000001 -0.000001 10.808137 9.857609 -5.150233 -0.410539 23.162397 -5.980893 -2.969226 9.089379 -0.988951 -0.000001 -0.000000 0.000000 2.037788 14.418637 -0.155934 6.837702 -21.973637 34.474188 -0.000000 11.217462 0.000001 48.431092 23.324845 -11.693382 18.374249 -3.293458 17.345614 23.482226 -18.399080 18.026968 7.075539 -6.244145 5.483642 0.000002 0.000000 0.000002 1.186726 -3.890242 33.917702 0.532644 -2.673574 22.530287 0.134346 -1.363020 11.258926 0.000000 -0.000002 -0.000000 -3.101507 4.631422 15.677789 49.541777 -2.239663 0.018995 30.391572 0.730289 -2.516041 0.000007 0.000006 0.000001 -0.000001 0.000002 0.000002 -52.009930 -3.921739 -18.453250 22.567645 -8.649997 -0.339529 25.182202 -0.227235 26.171851 0.000007 -0.000005 0.000002 0.000000 -0.000001 0.000002 
